<?xml version="1.0" encoding="UTF-8" standalone="no"?><!DOCTYPE svg PUBLIC "-//W3C//DTD SVG 1.1//EN" "http://www.w3.org/Graphics/SVG/1.1/DTD/svg11.dtd"><svg width="100%" height="100%" viewBox="0 0 1024 1024" version="1.1" xmlns="http://www.w3.org/2000/svg" xmlns:xlink="http://www.w3.org/1999/xlink" xml:space="preserve" xmlns:serif="http://www.serif.com/" style="fill-rule:evenodd;clip-rule:evenodd;stroke-linejoin:round;stroke-miterlimit:2;"><g id="abstract-bullshit-shape" serif:id="abstract bullshit shape" transform="matrix(1.96501,0,0,1.96501,-506.595,-198.043)"><g transform="matrix(4.52181,0,0,1.34848,-1477.13,-112.815)"><path d="M477.864,323.732L425.887,360.408L419.347,323.732L477.864,323.732Z" style="fill:url(#_Linear1);"/></g><path d="M421.98,251.201L448.051,302.328L404.939,302.328L374.748,251.175L421.98,251.201Z" style="fill:url(#_Linear2);"/><g transform="matrix(1,0,0,1,0.374252,-0.101794)"><path d="M757.126,251.067L469.102,301.999L443.982,250.666L757.126,251.067Z" style="fill:url(#_Linear3);"/></g><g transform="matrix(-1,-1.22465e-16,1.22465e-16,-1,1225.66,552.85)"><path d="M756.18,250.954L468.228,301.901L523.245,250.827L756.18,250.954Z" style="fill:url(#_Linear4);"/></g><g transform="matrix(0.767142,-0.44291,0.44291,0.767142,-52.1728,207.48)"><path d="M354.948,293.09L354.948,340.104C354.948,343.869 351.891,346.926 348.126,346.926L301.112,346.926C297.347,346.926 294.29,343.869 294.29,340.104L294.29,293.09C294.29,289.325 297.347,286.268 301.112,286.268L348.126,286.268C351.891,286.268 354.948,289.325 354.948,293.09Z" style="fill:url(#_Linear5);"/></g><g transform="matrix(0.696351,0.283653,-0.283653,0.696351,171.153,-78.25)"><path d="M354.948,293.09L354.948,340.104C354.948,343.869 351.891,346.926 348.126,346.926L301.112,346.926C297.347,346.926 294.29,343.869 294.29,340.104L294.29,293.09C294.29,289.325 297.347,286.268 301.112,286.268L348.126,286.268C351.891,286.268 354.948,289.325 354.948,293.09Z" style="fill:url(#_Linear6);"/></g><g transform="matrix(0.474031,0.127016,-0.127016,0.474031,277.983,169.31)"><path d="M354.948,293.09L354.948,340.104C354.948,343.869 351.891,346.926 348.126,346.926L301.112,346.926C297.347,346.926 294.29,343.869 294.29,340.104L294.29,293.09C294.29,289.325 297.347,286.268 301.112,286.268L348.126,286.268C351.891,286.268 354.948,289.325 354.948,293.09Z" style="fill:url(#_Linear7);"/></g><g transform="matrix(2.5885,0,0,3.68488,-795.044,-1047.55)"><path d="M571.39,372.098L552.283,385.655L480.488,385.548L571.39,372.098Z" style="fill:url(#_Linear8);"/></g><path d="M484.61,439.957L461.494,394.063L615.585,393.941L484.61,439.957Z" style="fill:url(#_Linear9);"/><path d="M484.61,439.957L615.585,393.941L461.494,394.063L484.61,439.957Z" style="fill:none;"/><g transform="matrix(1.10229,-1.49097,1.07922,0.797882,-698.947,1049.37)"><path d="M664.304,458.453L705.684,497.218L623.322,496.927L664.304,458.453Z" style="fill:url(#_Linear10);"/></g><g transform="matrix(-0.878152,0.478381,-0.478381,-0.878152,1170.58,668.121)"><path d="M494.907,442.195L493.242,528.618L447.637,521.094L494.907,442.195Z" style="fill:url(#_Linear11);"/></g></g><defs><linearGradient id="_Linear1" x1="0" y1="0" x2="1" y2="0" gradientUnits="userSpaceOnUse" gradientTransform="matrix(4.35798,49.456,-14.7487,14.6134,444.971,316.136)"><stop offset="0" style="stop-color:#fff;stop-opacity:1"/><stop offset="1" style="stop-color:#b3b3b3;stop-opacity:1"/></linearGradient><linearGradient id="_Linear2" x1="0" y1="0" x2="1" y2="0" gradientUnits="userSpaceOnUse" gradientTransform="matrix(44.6394,94.3274,-94.3274,44.6394,399.316,250.656)"><stop offset="0" style="stop-color:#fbbd02;stop-opacity:1"/><stop offset="1" style="stop-color:#977200;stop-opacity:1"/></linearGradient><linearGradient id="_Linear3" x1="0" y1="0" x2="1" y2="0" gradientUnits="userSpaceOnUse" gradientTransform="matrix(258.812,52.4243,-52.4243,258.812,443.945,249.844)"><stop offset="0" style="stop-color:#fbbd02;stop-opacity:1"/><stop offset="1" style="stop-color:#977200;stop-opacity:1"/></linearGradient><linearGradient id="_Linear4" x1="0" y1="0" x2="1" y2="0" gradientUnits="userSpaceOnUse" gradientTransform="matrix(258.26,51.2298,-51.2298,258.26,522.341,250.311)"><stop offset="0" style="stop-color:#d28904;stop-opacity:1"/><stop offset="1" style="stop-color:#784e00;stop-opacity:1"/></linearGradient><linearGradient id="_Linear5" x1="0" y1="0" x2="1" y2="0" gradientUnits="userSpaceOnUse" gradientTransform="matrix(-76.7225,6.04925,-6.04925,-76.7225,358.805,313.875)"><stop offset="0" style="stop-color:#fbbd02;stop-opacity:1"/><stop offset="1" style="stop-color:#977200;stop-opacity:1"/></linearGradient><linearGradient id="_Linear6" x1="0" y1="0" x2="1" y2="0" gradientUnits="userSpaceOnUse" gradientTransform="matrix(-2.69929,100.187,-100.187,-2.69929,327.406,281.494)"><stop offset="0" style="stop-color:#fff;stop-opacity:1"/><stop offset="1" style="stop-color:#b3b3b3;stop-opacity:1"/></linearGradient><linearGradient id="_Linear7" x1="0" y1="0" x2="1" y2="0" gradientUnits="userSpaceOnUse" gradientTransform="matrix(-0.348783,112.526,-112.526,-0.348783,324.47,261.185)"><stop offset="0" style="stop-color:#fff;stop-opacity:1"/><stop offset="1" style="stop-color:#b3b3b3;stop-opacity:1"/></linearGradient><linearGradient id="_Linear8" x1="0" y1="0" x2="1" y2="0" gradientUnits="userSpaceOnUse" gradientTransform="matrix(-8.45053,-12.2904,17.4961,-5.93619,539.113,387.348)"><stop offset="0" style="stop-color:#e5e5e5;stop-opacity:1"/><stop offset="1" style="stop-color:#9e9e9e;stop-opacity:1"/></linearGradient><linearGradient id="_Linear9" x1="0" y1="0" x2="1" y2="0" gradientUnits="userSpaceOnUse" gradientTransform="matrix(52.0913,53.1241,-53.1241,52.0913,496.505,385.594)"><stop offset="0" style="stop-color:#d6d6d6;stop-opacity:1"/><stop offset="1" style="stop-color:#929292;stop-opacity:1"/></linearGradient><linearGradient id="_Linear10" x1="0" y1="0" x2="1" y2="0" gradientUnits="userSpaceOnUse" gradientTransform="matrix(-3.67541,-105.011,76.0111,-5.07766,667.878,517.313)"><stop offset="0" style="stop-color:#313131;stop-opacity:1"/><stop offset="1" style="stop-color:#747474;stop-opacity:1"/></linearGradient><linearGradient id="_Linear11" x1="0" y1="0" x2="1" y2="0" gradientUnits="userSpaceOnUse" gradientTransform="matrix(-110.257,-10.6291,10.6291,-110.257,521.75,497.239)"><stop offset="0" style="stop-color:#acacac;stop-opacity:1"/><stop offset="1" style="stop-color:#707070;stop-opacity:1"/></linearGradient></defs></svg>